<svg width="18" height="17" viewBox="0 0 18 17" fill="none" xmlns="http://www.w3.org/2000/svg">
<path d="M8.16602 6.00008H9.83268V4.33341H8.16602M8.99935 15.1667C5.32435 15.1667 2.33268 12.1751 2.33268 8.50008C2.33268 4.82508 5.32435 1.83341 8.99935 1.83341C12.6743 1.83341 15.666 4.82508 15.666 8.50008C15.666 12.1751 12.6743 15.1667 8.99935 15.1667ZM8.99935 0.166748C7.905 0.166748 6.82137 0.382296 5.81032 0.801085C4.79927 1.21987 3.88061 1.8337 3.10679 2.60752C1.54399 4.17033 0.666016 6.28994 0.666016 8.50008C0.666016 10.7102 1.54399 12.8298 3.10679 14.3926C3.88061 15.1665 4.79927 15.7803 5.81032 16.1991C6.82137 16.6179 7.905 16.8334 8.99935 16.8334C11.2095 16.8334 13.3291 15.9554 14.8919 14.3926C16.4547 12.8298 17.3327 10.7102 17.3327 8.50008C17.3327 7.40573 17.1171 6.3221 16.6983 5.31105C16.2796 4.30001 15.6657 3.38135 14.8919 2.60752C14.1181 1.8337 13.1994 1.21987 12.1884 0.801085C11.1773 0.382296 10.0937 0.166748 8.99935 0.166748ZM8.16602 12.6667H9.83268V7.66675H8.16602V12.6667Z" fill="#0037AD"/>
</svg>
