<svg width="32" height="33" viewBox="0 0 32 33" fill="none" xmlns="http://www.w3.org/2000/svg">
<path d="M16.1868 20.5935V17.98C16.1868 14.62 18.9068 11.8867 22.2801 11.8867H24.8935" stroke="black" stroke-width="1.5" stroke-linecap="round" stroke-linejoin="round"/>
<path d="M7.49365 11.9004H10.107C13.467 11.9004 16.2003 14.6203 16.2003 17.9937V18.8605V23.5003" stroke="black" stroke-width="1.5" stroke-linecap="round" stroke-linejoin="round"/>
<path d="M9.5201 9.5L7.12012 11.9L9.5201 14.3" stroke="black" stroke-width="1.5" stroke-linecap="round" stroke-linejoin="round"/>
<path d="M22.4801 9.5L24.8801 11.9L22.4801 14.3" stroke="black" stroke-width="1.5" stroke-linecap="round" stroke-linejoin="round"/>
<path d="M11.9998 29.8337H19.9998C26.6665 29.8337 29.3332 27.167 29.3332 20.5003V12.5003C29.3332 5.83366 26.6665 3.16699 19.9998 3.16699H11.9998C5.33317 3.16699 2.6665 5.83366 2.6665 12.5003V20.5003C2.6665 27.167 5.33317 29.8337 11.9998 29.8337Z" stroke="black" stroke-width="1.5" stroke-linecap="round" stroke-linejoin="round"/>
</svg>
