<svg width="21" height="20" viewBox="0 0 21 20" fill="none" xmlns="http://www.w3.org/2000/svg">
<g clip-path="url(#clip0_1140_6745)">
<path d="M6.05835 5.77246H14.917" stroke="#85939B" stroke-width="1.61067" stroke-linecap="round" stroke-linejoin="round"/>
<path d="M5.65601 16.2415V14.6308C5.65601 13.3493 6.16509 12.1203 7.07127 11.2141C7.97744 10.3079 9.20648 9.79883 10.488 9.79883C11.7695 9.79883 12.9986 10.3079 13.9047 11.2141C14.8109 12.1203 15.32 13.3493 15.32 14.6308V16.2415C15.32 16.4551 15.2352 16.6599 15.0841 16.811C14.9331 16.962 14.7283 17.0468 14.5147 17.0468H6.46134C6.24775 17.0468 6.04291 16.962 5.89188 16.811C5.74085 16.6599 5.65601 16.4551 5.65601 16.2415Z" stroke="#85939B" stroke-width="1.61067" stroke-linecap="round" stroke-linejoin="round"/>
<path d="M5.65601 3.35611V4.96678C5.65601 6.24831 6.16509 7.47735 7.07127 8.38352C7.97744 9.2897 9.20648 9.79878 10.488 9.79878C11.7695 9.79878 12.9986 9.2897 13.9047 8.38352C14.8109 7.47735 15.32 6.24831 15.32 4.96678V3.35611C15.32 3.14253 15.2352 2.93769 15.0841 2.78666C14.9331 2.63563 14.7283 2.55078 14.5147 2.55078H6.46134C6.24775 2.55078 6.04291 2.63563 5.89188 2.78666C5.74085 2.93769 5.65601 3.14253 5.65601 3.35611V3.35611Z" stroke="#85939B" stroke-width="1.61067" stroke-linecap="round" stroke-linejoin="round"/>
</g>
<defs>
<clipPath id="clip0_1140_6745">
<rect width="19.328" height="19.328" fill="white" transform="translate(0.823975 0.134766)"/>
</clipPath>
</defs>
</svg>
