<svg width="24" height="24" viewBox="0 0 24 24" fill="none" xmlns="http://www.w3.org/2000/svg">
<path d="M4 17.998C4 16.9372 4.42143 15.9198 5.17157 15.1696C5.92172 14.4195 6.93913 13.998 8 13.998H16C17.0609 13.998 18.0783 14.4195 18.8284 15.1696C19.5786 15.9198 20 16.9372 20 17.998C20 18.5285 19.7893 19.0372 19.4142 19.4123C19.0391 19.7873 18.5304 19.998 18 19.998H6C5.46957 19.998 4.96086 19.7873 4.58579 19.4123C4.21071 19.0372 4 18.5285 4 17.998Z" stroke="black" stroke-width="1.5" stroke-linejoin="round"/>
<path d="M12 9.99902C13.6569 9.99902 15 8.65588 15 6.99902C15 5.34217 13.6569 3.99902 12 3.99902C10.3431 3.99902 9 5.34217 9 6.99902C9 8.65588 10.3431 9.99902 12 9.99902Z" stroke="black" stroke-width="1.5"/>
</svg>
