<svg width="24" height="24" viewBox="0 0 24 24" fill="none" xmlns="http://www.w3.org/2000/svg">
<path d="M8.99991 15.0004L14.9999 9.00039M3.98891 14.6604L2.46891 13.1404C1.84891 12.5204 1.84891 11.5004 2.46891 10.8804L3.98891 9.36039C4.24891 9.10039 4.45891 8.59039 4.45891 8.23039V6.08039C4.45891 5.20039 5.17891 4.48039 6.05891 4.48039H8.20891C8.56891 4.48039 9.07891 4.27039 9.33891 4.01039L10.8589 2.49039C11.4789 1.87039 12.4989 1.87039 13.1189 2.49039L14.6389 4.01039C14.8989 4.27039 15.4089 4.48039 15.7689 4.48039H17.9189C18.7989 4.48039 19.5189 5.20039 19.5189 6.08039V8.23039C19.5189 8.59039 19.7289 9.10039 19.9889 9.36039L21.5089 10.8804C22.1289 11.5004 22.1289 12.5204 21.5089 13.1404L19.9889 14.6604C19.7289 14.9204 19.5189 15.4304 19.5189 15.7904V17.9404C19.5189 18.8204 18.7989 19.5404 17.9189 19.5404H15.7689C15.4089 19.5404 14.8989 19.7504 14.6389 20.0104L13.1189 21.5304C12.4989 22.1504 11.4789 22.1504 10.8589 21.5304L9.33891 20.0104C9.07891 19.7504 8.56891 19.5404 8.20891 19.5404H6.05891C5.17891 19.5404 4.45891 18.8204 4.45891 17.9404V15.7904C4.45891 15.4204 4.24891 14.9104 3.98891 14.6604Z" stroke="black" stroke-width="1.5" stroke-linecap="round" stroke-linejoin="round"/>
<path d="M14.4951 14.501H14.5041M9.49512 9.50098H9.50312" stroke="black" stroke-width="1.72839" stroke-linecap="round" stroke-linejoin="round"/>
</svg>
