<svg width="19" height="19" viewBox="0 0 19 19" fill="none" xmlns="http://www.w3.org/2000/svg">
<path d="M5.93752 15.8333H15.0417L17.4167 18.2083V9.89583C17.4167 9.025 16.7042 8.3125 15.8334 8.3125H5.93752C5.06669 8.3125 4.35419 9.025 4.35419 9.89583V14.25C4.35419 15.1208 5.06669 15.8333 5.93752 15.8333Z" fill="#558B2F"/>
<path d="M11.4 12.9826H9.975L9.69792 13.8138H8.82709L10.2917 9.85547H11.0438L12.5083 13.8138H11.6375L11.4 12.9826ZM10.1729 12.3492H11.1625L10.6875 10.8451L10.1729 12.3492Z" fill="#1B5E20"/>
<path d="M13.0625 9.89648H3.95831L1.58331 12.2715V3.16732C1.58331 2.29648 2.29581 1.58398 3.16665 1.58398H13.0625C13.9333 1.58398 14.6458 2.29648 14.6458 3.16732V8.31315C14.6458 9.18398 13.9333 9.89648 13.0625 9.89648Z" fill="#8BC34A"/>
<path d="M10.0542 5.62135C10.0542 6.01719 9.97503 6.33385 9.85628 6.61094C9.73753 6.88802 9.5792 7.12552 9.3417 7.28385L10.0146 7.79844L9.50003 8.27344L8.62919 7.60052C8.55003 7.60052 8.43128 7.6401 8.31253 7.6401C8.07503 7.6401 7.83753 7.60052 7.60003 7.52135C7.40211 7.44219 7.20419 7.28385 7.04586 7.12552C6.88753 6.96719 6.76878 6.72969 6.68961 6.49219C6.61044 6.25469 6.57086 5.9776 6.57086 5.66094V5.5026C6.57086 5.18594 6.61044 4.90885 6.68961 4.67135C6.76878 4.43385 6.88753 4.19635 7.04586 4.03802C7.20419 3.87969 7.36253 3.72135 7.60003 3.64219C7.79795 3.56302 8.03545 3.52344 8.31253 3.52344C8.55003 3.52344 8.78753 3.56302 9.02503 3.64219C9.22294 3.72135 9.42086 3.87969 9.5792 4.03802C9.73753 4.19635 9.85628 4.43385 9.93545 4.67135C10.0146 4.90885 10.0542 5.18594 10.0542 5.5026V5.62135ZM9.18336 5.42344C9.18336 4.98802 9.1042 4.67135 8.94586 4.47344C8.78753 4.23594 8.58961 4.15677 8.31253 4.15677C8.03545 4.15677 7.79794 4.27552 7.67919 4.47344C7.52086 4.71094 7.44169 5.0276 7.44169 5.42344V5.62135C7.44169 5.81927 7.48128 6.01719 7.52086 6.17552C7.56045 6.33385 7.60003 6.49219 7.67919 6.57135C7.75836 6.6901 7.83753 6.76927 7.95628 6.80885C8.07503 6.84844 8.19378 6.88802 8.31253 6.88802C8.58961 6.88802 8.82711 6.76927 8.94586 6.57135C9.1042 6.33385 9.18336 6.01719 9.18336 5.58177V5.42344Z" fill="white"/>
</svg>
