<svg width="19" height="19" viewBox="0 0 19 19" fill="none" xmlns="http://www.w3.org/2000/svg">
<path d="M15.8097 7.91719H3.143V14.2505C3.143 16.6255 3.93466 17.4172 6.30966 17.4172H12.643C15.018 17.4172 15.8097 16.6255 15.8097 14.2505V7.91719ZM17.0209 5.54219V6.33386C17.0209 7.20469 16.6013 7.91719 15.4376 7.91719H3.56258C2.35133 7.91719 1.97925 7.20469 1.97925 6.33386V5.54219C1.97925 4.67136 2.35133 3.95886 3.56258 3.95886H15.4376C16.6013 3.95886 17.0209 4.67136 17.0209 5.54219ZM9.21508 3.95886H4.84508C4.71491 3.81767 4.64463 3.63147 4.64906 3.43948C4.65349 3.24749 4.73229 3.06473 4.86883 2.92969L5.993 1.80553C6.13527 1.66484 6.32729 1.58594 6.52737 1.58594C6.72746 1.58594 6.91947 1.66484 7.06175 1.80553L9.21508 3.95886ZM14.1472 3.95886H9.77717L11.9305 1.80553C12.0728 1.66484 12.2648 1.58594 12.4649 1.58594C12.665 1.58594 12.857 1.66484 12.9992 1.80553L14.1234 2.92969C14.4084 3.21469 14.4163 3.66594 14.1472 3.95886Z" stroke="#CE5693" stroke-width="1.5" stroke-miterlimit="10" stroke-linecap="round" stroke-linejoin="round"/>
<path d="M7.07745 7.91602V11.9852C7.07745 12.6185 7.77412 12.9906 8.30454 12.6502L9.0487 12.1593C9.17797 12.0742 9.32935 12.0289 9.48412 12.0289C9.63889 12.0289 9.79027 12.0742 9.91954 12.1593L10.6241 12.6343C10.743 12.7136 10.8812 12.7591 11.0239 12.766C11.1666 12.7729 11.3085 12.7409 11.4345 12.6734C11.5605 12.606 11.6658 12.5056 11.7391 12.383C11.8125 12.2604 11.8513 12.1202 11.8512 11.9773V7.91602H7.07745Z" stroke="#CE5693" stroke-width="1.5" stroke-miterlimit="10" stroke-linecap="round" stroke-linejoin="round"/>
</svg>
