<svg width="20" height="19" viewBox="0 0 20 19" fill="none" xmlns="http://www.w3.org/2000/svg">
<path d="M10.2903 10.6314C10.6147 10.6314 10.9359 10.5675 11.2355 10.4434C11.5352 10.3193 11.8075 10.1373 12.0369 9.90796C12.2662 9.6786 12.4482 9.40631 12.5723 9.10663C12.6964 8.80696 12.7603 8.48577 12.7603 8.16141C12.7603 7.83704 12.6964 7.51585 12.5723 7.21618C12.4482 6.9165 12.2662 6.64421 12.0369 6.41485C11.8075 6.18549 11.5352 6.00355 11.2355 5.87942C10.9359 5.75529 10.6147 5.69141 10.2903 5.69141C9.63523 5.69141 9.00697 5.95164 8.54376 6.41485C8.08054 6.87807 7.82031 7.50632 7.82031 8.16141C7.82031 8.81649 8.08054 9.44475 8.54376 9.90796C9.00697 10.3712 9.63523 10.6314 10.2903 10.6314Z" stroke="#D9B336" stroke-width="1.5"/>
<path d="M3.65611 6.7219C5.21569 -0.133931 15.3728 -0.126014 16.9244 6.72982C17.8349 10.7515 15.3332 14.1557 13.1403 16.2615C12.374 17.0005 11.3509 17.4135 10.2863 17.4135C9.22172 17.4135 8.19864 17.0005 7.43236 16.2615C5.24736 14.1557 2.74569 10.7436 3.65611 6.7219Z" stroke="#D9B336" stroke-width="1.5"/>
</svg>
