<svg width="16" height="16" viewBox="0 0 16 16" fill="none" xmlns="http://www.w3.org/2000/svg">
<path d="M14.3462 4.1H11.4615C11.4615 3.14522 11.0968 2.22955 10.4477 1.55442C9.79851 0.879285 8.91806 0.5 8 0.5C7.08194 0.5 6.20149 0.879285 5.55232 1.55442C4.90316 2.22955 4.53846 3.14522 4.53846 4.1H1.65385C1.34783 4.1 1.05434 4.22643 0.837954 4.45147C0.621566 4.67652 0.5 4.98174 0.5 5.3V14.3C0.5 14.6183 0.621566 14.9235 0.837954 15.1485C1.05434 15.3736 1.34783 15.5 1.65385 15.5H14.3462C14.6522 15.5 14.9457 15.3736 15.162 15.1485C15.3784 14.9235 15.5 14.6183 15.5 14.3V5.3C15.5 4.98174 15.3784 4.67652 15.162 4.45147C14.9457 4.22643 14.6522 4.1 14.3462 4.1ZM8 1.7C8.61204 1.7 9.19901 1.95286 9.63178 2.40294C10.0646 2.85303 10.3077 3.46348 10.3077 4.1H5.69231C5.69231 3.46348 5.93544 2.85303 6.36822 2.40294C6.80099 1.95286 7.38796 1.7 8 1.7ZM14.3462 14.3H1.65385V5.3H4.53846V6.5C4.53846 6.65913 4.59924 6.81174 4.70744 6.92426C4.81563 7.03679 4.96238 7.1 5.11538 7.1C5.26839 7.1 5.41514 7.03679 5.52333 6.92426C5.63153 6.81174 5.69231 6.65913 5.69231 6.5V5.3H10.3077V6.5C10.3077 6.65913 10.3685 6.81174 10.4767 6.92426C10.5849 7.03679 10.7316 7.1 10.8846 7.1C11.0376 7.1 11.1844 7.03679 11.2926 6.92426C11.4008 6.81174 11.4615 6.65913 11.4615 6.5V5.3H14.3462V14.3Z" fill="#009C10"/>
</svg>
