<svg width="20" height="19" viewBox="0 0 20 19" fill="none" xmlns="http://www.w3.org/2000/svg">
<path d="M18.1832 14.5119C18.1832 14.7969 18.1198 15.0898 17.9853 15.3748C17.8507 15.6598 17.6765 15.929 17.4469 16.1823C17.059 16.6098 16.6315 16.9186 16.1486 17.1165C15.6736 17.3144 15.159 17.4173 14.6048 17.4173C13.7973 17.4173 12.9344 17.2273 12.024 16.8394C11.1136 16.4515 10.2032 15.929 9.30068 15.2719C8.38085 14.5991 7.51285 13.8581 6.70401 13.0552C5.90345 12.2493 5.16509 11.3839 4.49526 10.4665C3.8461 9.56398 3.3236 8.66148 2.9436 7.7669C2.5636 6.8644 2.3736 6.00148 2.3736 5.17815C2.3736 4.63982 2.4686 4.12523 2.6586 3.65023C2.8486 3.16732 3.14943 2.72398 3.56901 2.32815C4.07568 1.8294 4.62985 1.58398 5.21568 1.58398C5.43735 1.58398 5.65901 1.63148 5.85693 1.72648C6.06276 1.82148 6.24485 1.96398 6.38735 2.16982L8.22401 4.75857C8.36651 4.95648 8.46943 5.13857 8.54068 5.31273C8.61193 5.47898 8.65151 5.64523 8.65151 5.79565C8.65151 5.98565 8.5961 6.17565 8.48526 6.35773C8.38235 6.53982 8.23193 6.72982 8.04193 6.91982L7.44026 7.54523C7.35318 7.63232 7.3136 7.73523 7.3136 7.8619C7.3136 7.92523 7.32151 7.98065 7.33735 8.04398C7.3611 8.10732 7.38485 8.15482 7.40068 8.20232C7.54318 8.46357 7.7886 8.80398 8.13693 9.21565C8.49318 9.62732 8.87318 10.0469 9.28485 10.4665C9.71235 10.8861 10.124 11.274 10.5436 11.6302C10.9553 11.9786 11.2957 12.2161 11.5648 12.3586C11.6044 12.3744 11.6519 12.3982 11.7073 12.4219C11.7707 12.4457 11.834 12.4536 11.9053 12.4536C12.0398 12.4536 12.1428 12.4061 12.2298 12.319L12.8315 11.7252C13.0294 11.5273 13.2194 11.3769 13.4015 11.2819C13.5836 11.1711 13.7657 11.1157 13.9636 11.1157C14.114 11.1157 14.2723 11.1473 14.4465 11.2186C14.6207 11.2898 14.8028 11.3927 15.0007 11.5273L17.6211 13.3877C17.8269 13.5302 17.9694 13.6965 18.0565 13.8944C18.1357 14.0923 18.1832 14.2902 18.1832 14.5119Z" stroke="#B75AC5" stroke-width="1.5" stroke-miterlimit="10"/>
<path d="M15.4361 7.12565C15.4361 6.65065 15.064 5.92232 14.5099 5.32857C14.0032 4.78232 13.3303 4.35482 12.6653 4.35482M18.207 7.12565C18.207 4.0619 15.729 1.58398 12.6653 1.58398" stroke="#B75AC5" stroke-width="1.5" stroke-linecap="round" stroke-linejoin="round"/>
</svg>
