<svg width="19" height="19" viewBox="0 0 19 19" fill="none" xmlns="http://www.w3.org/2000/svg">
<path d="M15.2792 6.27044V10.3475C15.2792 12.7859 13.8858 13.8309 11.7958 13.8309H4.83709C4.48084 13.8309 4.14043 13.7992 3.82376 13.7279C3.62584 13.6963 3.43584 13.6409 3.26168 13.5775C2.07418 13.1342 1.35376 12.105 1.35376 10.3475V6.27044C1.35376 3.83211 2.74709 2.78711 4.83709 2.78711H11.7958C13.5692 2.78711 14.8438 3.53919 15.1842 5.25711C15.2396 5.57378 15.2792 5.89836 15.2792 6.27044Z" stroke="#4881DA" stroke-width="1.5" stroke-miterlimit="10" stroke-linecap="round" stroke-linejoin="round"/>
<path d="M17.6551 8.64419V12.7213C17.6551 15.1596 16.2618 16.2046 14.1718 16.2046H7.21304C6.62721 16.2046 6.09679 16.1254 5.63762 15.9513C4.69554 15.6029 4.05429 14.8825 3.82471 13.7267C4.14137 13.7979 4.48179 13.8296 4.83804 13.8296H11.7968C13.8868 13.8296 15.2801 12.7846 15.2801 10.3463V6.26919C15.2801 5.89711 15.2485 5.56461 15.1851 5.25586C16.6893 5.57253 17.6551 6.63336 17.6551 8.64419Z" stroke="#4881DA" stroke-width="1.5" stroke-miterlimit="10" stroke-linecap="round" stroke-linejoin="round"/>
<path d="M3.78442 6.57099V10.0543M12.8427 6.57099V10.0543M8.31117 10.4027C8.86548 10.4027 9.39708 10.1825 9.78903 9.79051C10.181 9.39856 10.4012 8.86696 10.4012 8.31266C10.4012 7.75835 10.181 7.22675 9.78903 6.8348C9.39708 6.44285 8.86548 6.22266 8.31117 6.22266C7.75687 6.22266 7.22527 6.44285 6.83332 6.8348C6.44137 7.22675 6.22117 7.75835 6.22117 8.31266C6.22117 8.86696 6.44137 9.39856 6.83332 9.79051C7.22527 10.1825 7.75687 10.4027 8.31117 10.4027Z" stroke="#4881DA" stroke-width="1.5" stroke-miterlimit="10" stroke-linecap="round" stroke-linejoin="round"/>
</svg>
