<svg width="19" height="16" viewBox="0 0 19 16" fill="none" xmlns="http://www.w3.org/2000/svg">
<path d="M16 0C16.5304 0 17.0391 0.210714 17.4142 0.585786C17.7893 0.960859 18 1.46957 18 2V4.268C18.304 4.44353 18.5565 4.696 18.732 5.00003C18.9076 5.30406 19 5.64894 19 6V10C19 10.3511 18.9076 10.6959 18.732 11C18.5565 11.304 18.304 11.5565 18 11.732V14C18 14.5304 17.7893 15.0391 17.4142 15.4142C17.0391 15.7893 16.5304 16 16 16H2C1.46957 16 0.960859 15.7893 0.585786 15.4142C0.210714 15.0391 0 14.5304 0 14V2C0 1.46957 0.210714 0.960859 0.585786 0.585786C0.960859 0.210714 1.46957 0 2 0H16ZM16 2H2V14H16V12H12C10.9564 12 9.9542 11.5922 9.20712 10.8636C8.46004 10.135 8.02729 9.14326 8.00119 8.10003C7.97509 7.0568 8.35772 6.04468 9.06744 5.27963C9.77715 4.51457 10.7578 4.05716 11.8 4.005L12 4H16V2ZM17 6H12C11.4696 6 10.9609 6.21071 10.5858 6.58579C10.2107 6.96086 10 7.46957 10 8C10 8.53043 10.2107 9.03914 10.5858 9.41421C10.9609 9.78929 11.4696 10 12 10H17V6ZM13 7C13.2652 7 13.5196 7.10536 13.7071 7.29289C13.8946 7.48043 14 7.73478 14 8C14 8.26522 13.8946 8.51957 13.7071 8.70711C13.5196 8.89464 13.2652 9 13 9C12.7348 9 12.4804 8.89464 12.2929 8.70711C12.1054 8.51957 12 8.26522 12 8C12 7.73478 12.1054 7.48043 12.2929 7.29289C12.4804 7.10536 12.7348 7 13 7Z" fill="#F3B960"/>
</svg>
